REM DIRINDEX 1\6,1\2\7,1\2\8,1\2\9,1\3\10,1\3\11,1\4\12,1\4\13,1\4\14,1\5\15,1\5\16,1\5\17
REM DIRNAME folder01,folder02,folder03,folder04,folder05,folder06,folder07,folder08,folder09,folder10,folder11,folder12,folder13,folder14,folder15,folder16,folder17
TITLE ""
FILE "P2Q_t2_0965-0982.mp3" MP3
  TRACK 01 AUDIO
    TITLE "7:cjc040_6728"
    INDEX 01 00:00:00
  TRACK 02 AUDIO
    TITLE "0:"
    INDEX 01 00:01:15
  TRACK 03 AUDIO
    TITLE "8:cjc040_6729"
    INDEX 01 00:01:71
  TRACK 04 AUDIO
    TITLE "0:"
    INDEX 01 00:03:08
  TRACK 05 AUDIO
    TITLE "9:cjc040_6730"
    INDEX 01 00:03:61
  TRACK 06 AUDIO
    TITLE "0:"
    INDEX 01 00:05:16
  TRACK 07 AUDIO
    TITLE "7:cjc040_6731"
    INDEX 01 00:06:71
  TRACK 08 AUDIO
    TITLE "0:"
    INDEX 01 00:08:11
  TRACK 09 AUDIO
    TITLE "8:cjc040_6732"
    INDEX 01 00:08:70
  TRACK 10 AUDIO
    TITLE "0:"
    INDEX 01 00:10:00
  TRACK 11 AUDIO
    TITLE "9:cjc040_6733"
    INDEX 01 00:10:61
  TRACK 12 AUDIO
    TITLE "0:"
    INDEX 01 00:11:74
  TRACK 13 AUDIO
    TITLE "7:cjc040_6734"
    INDEX 01 00:13:65
  TRACK 14 AUDIO
    TITLE "0:"
    INDEX 01 00:15:30
  TRACK 15 AUDIO
    TITLE "8:cjc040_6735"
    INDEX 01 00:16:04
  TRACK 16 AUDIO
    TITLE "0:"
    INDEX 01 00:17:06
  TRACK 17 AUDIO
    TITLE "9:cjc040_6736"
    INDEX 01 00:17:69
  TRACK 18 AUDIO
    TITLE "0:"
    INDEX 01 00:19:38
  TRACK 19 AUDIO
    TITLE "7:cjc040_6737"
    INDEX 01 00:21:15
  TRACK 20 AUDIO
    TITLE "0:"
    INDEX 01 00:22:21
  TRACK 21 AUDIO
    TITLE "8:cjc040_6738"
    INDEX 01 00:23:01
  TRACK 22 AUDIO
    TITLE "0:"
    INDEX 01 00:25:11
  TRACK 23 AUDIO
    TITLE "9:cjc040_6739"
    INDEX 01 00:25:54
  TRACK 24 AUDIO
    TITLE "0:"
    INDEX 01 00:26:62
  TRACK 25 AUDIO
    TITLE "7:cjc040_6740"
    INDEX 01 00:28:45
  TRACK 26 AUDIO
    TITLE "0:"
    INDEX 01 00:29:58
  TRACK 27 AUDIO
    TITLE "8:cjc040_6741"
    INDEX 01 00:30:36
  TRACK 28 AUDIO
    TITLE "0:"
    INDEX 01 00:33:64
  TRACK 29 AUDIO
    TITLE "9:cjc040_6742"
    INDEX 01 00:34:42
  TRACK 30 AUDIO
    TITLE "0:"
    INDEX 01 00:35:55
  TRACK 31 AUDIO
    TITLE "7:cjc040_6743"
    INDEX 01 00:37:44
  TRACK 32 AUDIO
    TITLE "0:"
    INDEX 01 00:38:57
  TRACK 33 AUDIO
    TITLE "8:cjc040_6744"
    INDEX 01 00:39:33
  TRACK 34 AUDIO
    TITLE "0:"
    INDEX 01 00:42:35
  TRACK 35 AUDIO
    TITLE "9:cjc040_6745"
    INDEX 01 00:43:11
  TRACK 36 AUDIO
    TITLE "0:"
    INDEX 01 00:44:28
  TRACK 37 AUDIO
    TITLE "7:cjc040_6746"
    INDEX 01 00:46:11
  TRACK 38 AUDIO
    TITLE "0:"
    INDEX 01 00:47:50
  TRACK 39 AUDIO
    TITLE "8:cjc040_6747"
    INDEX 01 00:48:32
  TRACK 40 AUDIO
    TITLE "0:"
    INDEX 01 00:51:50
  TRACK 41 AUDIO
    TITLE "9:cjc040_6748"
    INDEX 01 00:52:28
  TRACK 42 AUDIO
    TITLE "0:"
    INDEX 01 00:53:66
  TRACK 43 AUDIO
    TITLE "7:cjc040_6749"
    INDEX 01 00:55:42
  TRACK 44 AUDIO
    TITLE "0:"
    INDEX 01 00:56:53
  TRACK 45 AUDIO
    TITLE "8:cjc040_6750"
    INDEX 01 00:57:29
  TRACK 46 AUDIO
    TITLE "0:"
    INDEX 01 00:59:26
  TRACK 47 AUDIO
    TITLE "9:cjc040_6751"
    INDEX 01 01:00:02
  TRACK 48 AUDIO
    TITLE "0:"
    INDEX 01 01:01:17
  TRACK 49 AUDIO
    TITLE "7:cjc040_6752"
    INDEX 01 01:02:69
  TRACK 50 AUDIO
    TITLE "0:"
    INDEX 01 01:04:13
  TRACK 51 AUDIO
    TITLE "8:cjc040_6753"
    INDEX 01 01:04:64
  TRACK 52 AUDIO
    TITLE "0:"
    INDEX 01 01:06:06
  TRACK 53 AUDIO
    TITLE "9:cjc040_6754"
    INDEX 01 01:06:57
  TRACK 54 AUDIO
    TITLE "0:"
    INDEX 01 01:08:05
  TRACK 55 AUDIO
    TITLE "7:cjc040_6755"
    INDEX 01 01:09:59
  TRACK 56 AUDIO
    TITLE "0:"
    INDEX 01 01:10:67
  TRACK 57 AUDIO
    TITLE "8:cjc040_6756"
    INDEX 01 01:11:45
  TRACK 58 AUDIO
    TITLE "0:"
    INDEX 01 01:12:60
  TRACK 59 AUDIO
    TITLE "9:cjc040_6757"
    INDEX 01 01:13:34
  TRACK 60 AUDIO
    TITLE "0:"
    INDEX 01 01:14:51
  TRACK 61 AUDIO
    TITLE "7:cjc040_6758"
    INDEX 01 01:16:32
  TRACK 62 AUDIO
    TITLE "0:"
    INDEX 01 01:17:47
  TRACK 63 AUDIO
    TITLE "8:cjc040_6759"
    INDEX 01 01:18:23
  TRACK 64 AUDIO
    TITLE "0:"
    INDEX 01 01:20:36
  TRACK 65 AUDIO
    TITLE "9:cjc040_6760"
    INDEX 01 01:21:10
  TRACK 66 AUDIO
    TITLE "0:"
    INDEX 01 01:22:29
  TRACK 67 AUDIO
    TITLE "7:cjc040_6761"
    INDEX 01 01:24:06
  TRACK 68 AUDIO
    TITLE "0:"
    INDEX 01 01:25:35
  TRACK 69 AUDIO
    TITLE "8:cjc040_6762"
    INDEX 01 01:26:11
  TRACK 70 AUDIO
    TITLE "0:"
    INDEX 01 01:27:24
  TRACK 71 AUDIO
    TITLE "9:cjc040_6763"
    INDEX 01 01:28:02
  TRACK 72 AUDIO
    TITLE "0:"
    INDEX 01 01:29:33
  TRACK 73 AUDIO
    TITLE "7:cjc040_6764"
    INDEX 01 01:31:14
  TRACK 74 AUDIO
    TITLE "0:"
    INDEX 01 01:32:39
  TRACK 75 AUDIO
    TITLE "8:cjc040_6765"
    INDEX 01 01:33:17
  TRACK 76 AUDIO
    TITLE "0:"
    INDEX 01 01:34:34
  TRACK 77 AUDIO
    TITLE "9:cjc040_6766"
    INDEX 01 01:35:10
  TRACK 78 AUDIO
    TITLE "0:"
    INDEX 01 01:36:37
  TRACK 79 AUDIO
    TITLE "7:cjc040_6767"
    INDEX 01 01:38:16
  TRACK 80 AUDIO
    TITLE "0:"
    INDEX 01 01:39:51
  TRACK 81 AUDIO
    TITLE "8:cjc040_6768"
    INDEX 01 01:40:31
  TRACK 82 AUDIO
    TITLE "0:"
    INDEX 01 01:41:38
  TRACK 83 AUDIO
    TITLE "9:cjc040_6769"
    INDEX 01 01:42:16
  TRACK 84 AUDIO
    TITLE "0:"
    INDEX 01 01:43:51
  TRACK 85 AUDIO
    TITLE "7:cjc040_6770"
    INDEX 01 01:45:32
  TRACK 86 AUDIO
    TITLE "0:"
    INDEX 01 01:46:45
  TRACK 87 AUDIO
    TITLE "8:cjc040_6771"
    INDEX 01 01:47:23
  TRACK 88 AUDIO
    TITLE "0:"
    INDEX 01 01:49:06
  TRACK 89 AUDIO
    TITLE "9:cjc040_6772"
    INDEX 01 01:49:61
  TRACK 90 AUDIO
    TITLE "0:"
    INDEX 01 01:51:05
  TRACK 91 AUDIO
    TITLE "7:cjc040_6773"
    INDEX 01 01:52:57
  TRACK 92 AUDIO
    TITLE "0:"
    INDEX 01 01:53:72
  TRACK 93 AUDIO
    TITLE "8:cjc040_6774"
    INDEX 01 01:54:50
  TRACK 94 AUDIO
    TITLE "0:"
    INDEX 01 01:57:66
  TRACK 95 AUDIO
    TITLE "9:cjc040_6775"
    INDEX 01 01:58:36
  TRACK 96 AUDIO
    TITLE "0:"
    INDEX 01 01:59:53
  TRACK 97 AUDIO
    TITLE "7:cjc040_6776"
    INDEX 01 02:01:41
  TRACK 98 AUDIO
    TITLE "0:"
    INDEX 01 02:02:48
  TRACK 99 AUDIO
    TITLE "8:cjc040_6777"
    INDEX 01 02:03:26
  TRACK 100 AUDIO
    TITLE "0:"
    INDEX 01 02:05:05
  TRACK 101 AUDIO
    TITLE "9:cjc040_6778"
    INDEX 01 02:05:54
  TRACK 102 AUDIO
    TITLE "0:"
    INDEX 01 02:06:65
  TRACK 103 AUDIO
    TITLE "7:cjc040_6779"
    INDEX 01 02:08:41
  TRACK 104 AUDIO
    TITLE "0:"
    INDEX 01 02:09:56
  TRACK 105 AUDIO
    TITLE "8:cjc040_6780"
    INDEX 01 02:10:26
  TRACK 106 AUDIO
    TITLE "0:"
    INDEX 01 02:13:42
  TRACK 107 AUDIO
    TITLE "9:cjc040_6781"
    INDEX 01 02:14:22
  TRACK 108 AUDIO
    TITLE "0:"
    INDEX 01 02:15:35
